<svg xmlns="http://www.w3.org/2000/svg" width="37" height="42" fill="none" viewBox="0 0 37 42"><path stroke="url(#paint0_linear_1_6)" stroke-width="5" d="M26.375 29.3184V30.3679L27.1241 31.1029L28.9447 32.8892H4.05527L5.87585 31.1029L6.625 30.3679V29.3184V19.2005C6.625 13.8744 9.41719 9.90539 13.9723 8.84649L15.9062 8.39692V6.41142V5.03538C15.9062 4.78119 16.1237 4.5 16.5 4.5C16.8763 4.5 17.0938 4.78119 17.0938 5.03538V6.41142V8.39535L19.0258 8.84605C23.5637 9.90464 26.375 13.8968 26.375 19.2005V29.3184Z"/><path fill="url(#paint1_linear_1_6)" d="M21 37C21 38.3261 20.5259 39.5979 19.682 40.5355C18.8381 41.4732 17.6935 42 16.5 42C15.3065 42 14.1619 41.4732 13.318 40.5355C12.4741 39.5979 12 38.3261 12 37L16.5 37H21Z"/><ellipse cx="33" cy="4.85" fill="#6C1182" rx="4" ry="4.85"/><defs><linearGradient id="paint0_linear_1_6" x1="16.5" x2="16.5" y1="2" y2="41.46" gradientUnits="userSpaceOnUse"><stop stop-color="#3254BD"/><stop offset=".839" stop-color="#6C1182"/><stop offset="1" stop-color="#4E33A0"/></linearGradient><linearGradient id="paint1_linear_1_6" x1="16" x2="16" y1="37" y2="42" gradientUnits="userSpaceOnUse"><stop stop-color="#312FAF"/><stop offset=".417" stop-color="#552C9A"/><stop offset=".938" stop-color="#6C1283"/></linearGradient></defs></svg>