<svg width="40" height="42" viewBox="0 0 40 42" fill="none" xmlns="http://www.w3.org/2000/svg">
<path d="M35.035 22.9975C35.12 22.36 35.1625 21.7012 35.1625 21C35.1625 20.32 35.12 19.64 35.0138 19.0025L39.3275 15.645C39.71 15.3475 39.8163 14.7737 39.5825 14.3487L35.5025 7.29375C35.2475 6.82625 34.7163 6.6775 34.2488 6.82625L29.17 8.86625C28.1075 8.05875 26.9813 7.37875 25.7275 6.86875L24.9625 1.47125C24.8775 0.961248 24.4525 0.599998 23.9425 0.599998H15.7825C15.2725 0.599998 14.8688 0.961248 14.7838 1.47125L14.0188 6.86875C12.765 7.37875 11.6175 8.08 10.5763 8.86625L5.49754 6.82625C5.03004 6.65625 4.49879 6.82625 4.24379 7.29375L0.185038 14.3487C-0.0699622 14.795 0.0150376 15.3475 0.440038 15.645L4.75379 19.0025C4.64754 19.64 4.56254 20.3412 4.56254 21C4.56254 21.6587 4.60504 22.36 4.71129 22.9975L0.397538 26.355C0.0150376 26.6525 -0.0912121 27.2262 0.142538 27.6512L4.22254 34.7062C4.47754 35.1737 5.00879 35.3225 5.47629 35.1737L10.555 33.1337C11.6175 33.9412 12.7438 34.6212 13.9975 35.1312L14.7625 40.5287C14.8688 41.0387 15.2725 41.4 15.7825 41.4H23.9425C24.4525 41.4 24.8775 41.0387 24.9413 40.5287L25.7063 35.1312C26.96 34.6212 28.1075 33.9412 29.1488 33.1337L34.2275 35.1737C34.695 35.3437 35.2263 35.1737 35.4813 34.7062L39.5613 27.6512C39.8163 27.1837 39.71 26.6525 39.3063 26.355L35.035 22.9975ZM19.8625 28.65C15.655 28.65 12.2125 25.2075 12.2125 21C12.2125 16.7925 15.655 13.35 19.8625 13.35C24.07 13.35 27.5125 16.7925 27.5125 21C27.5125 25.2075 24.07 28.65 19.8625 28.65Z" fill="white" fill-opacity="0.8"/>
</svg>
