<svg xmlns="http://www.w3.org/2000/svg" width="45" height="43" fill="none" viewBox="0 0 45 43"><g clip-path="url(#clip0_2_188)" opacity=".8"><path fill="#FFFCFC" fill-opacity=".8" d="M42.7991 3.5802C43.0708 3.53214 43.3499 3.58666 43.5869 3.73407C43.7981 3.82791 43.9785 3.98453 44.1058 4.18461C44.2331 4.38469 44.3016 4.61946 44.303 4.85992L44.5071 34.4435C44.5189 34.6677 44.472 34.891 44.3717 35.0894C44.2714 35.2878 44.1214 35.4537 43.9378 35.5694L32.4114 42.7561C32.2046 42.9173 31.953 43.003 31.6953 43C31.6321 43.0057 31.5686 43.0057 31.5055 43L1.61356 39.4986C1.31458 39.4823 1.03282 39.3471 0.825837 39.1204C0.618857 38.8937 0.502288 38.5927 0.499951 38.2789V8.17368C0.495677 7.92812 0.561588 7.68683 0.689208 7.48085C0.816829 7.27487 1.00032 7.11361 1.2161 7.0178L16.2158 0.101324C16.4103 0.00695402 16.6262 -0.0281593 16.8388 -2.74891e-06L42.7991 3.56894V3.5802ZM29.4573 4.21819L20.6237 9.47216L31.5019 10.9283L39.5585 5.60673L29.4573 4.21819ZM19.0732 11.7239L18.6722 24.2508L14.1891 21.0497L9.70959 23.7067L10.6155 10.6055L2.84533 9.56598V37.1718L30.5351 40.3993V13.27L19.0768 11.7351L19.0732 11.7239ZM12.0192 8.31253L20.595 3.00227L16.8639 2.48438L5.95698 7.50567L12.0263 8.32004L12.0192 8.31253ZM32.8841 12.9135V39.6037L42.1582 33.8093L41.972 6.90897L32.8841 12.9135V12.9135Z"/></g><defs><clipPath id="clip0_2_188"><rect width="44" height="43" fill="#fff" transform="translate(0.5)"/></clipPath></defs></svg>